<?xml version="1.0" standalone="no"?>
<!DOCTYPE svg PUBLIC "-//W3C//DTD SVG 20010904//EN"
 "http://www.w3.org/TR/2001/REC-SVG-20010904/DTD/svg10.dtd">
<svg version="1.0" xmlns="http://www.w3.org/2000/svg"
 width="800.000000pt" height="800.000000pt" viewBox="0 0 800.000000 800.000000"
 preserveAspectRatio="xMidYMid meet">
<metadata>
Created by potrace 1.14, written by Peter Selinger 2001-2017
</metadata>
<g transform="translate(0.000000,800.000000) scale(0.100000,-0.100000)"
fill="#000000" stroke="none">
<path d="M4745 7231 c3 -5 1 -12 -5 -16 -5 -3 -10 -1 -10 6 0 8 -3 9 -13 0 -8
-6 -18 -7 -22 -3 -5 4 -5 -2 -2 -13 7 -18 6 -18 -12 2 -17 21 -31 21 -31 1 0
-5 5 -6 10 -3 6 3 10 1 10 -4 0 -15 -13 -14 -29 2 -11 10 -13 9 -8 -6 6 -15 4
-16 -13 -7 -15 8 -20 8 -20 -2 0 -10 -2 -10 -9 1 -7 10 -10 10 -13 1 -3 -9 -9
-8 -21 4 -16 16 -17 16 -17 -1 0 -15 -2 -16 -10 -3 -7 11 -10 11 -10 2 0 -7
-5 -10 -12 -6 -6 4 -17 -1 -25 -11 -12 -17 -13 -18 -13 -1 0 9 -5 14 -10 11
-6 -4 -8 -10 -5 -15 3 -5 0 -12 -6 -16 -7 -4 -9 -3 -6 3 4 6 0 14 -9 17 -8 3
-13 2 -10 -3 3 -5 -3 -11 -14 -14 -11 -3 -20 0 -20 6 0 8 -3 7 -9 -1 -11 -18
-15 -19 -32 -6 -12 9 -33 11 -41 4 -2 -1 -10 -3 -18 -5 -8 -3 -22 -6 -30 -8
-29 -8 -55 -21 -62 -31 -5 -7 -8 -7 -8 -1 0 6 -9 11 -20 12 -13 1 -18 -2 -13
-10 4 -7 -1 -6 -11 2 -15 13 -19 13 -27 0 -6 -10 -9 -11 -9 -1 0 8 -5 10 -12
6 -23 -14 -49 -12 -43 4 5 12 3 13 -10 2 -9 -7 -18 -10 -22 -7 -3 4 -12 2 -20
-4 -9 -8 -17 -8 -26 0 -10 8 -14 7 -14 -4 0 -8 4 -12 8 -9 4 2 10 0 13 -5 8
-12 -70 -19 -89 -8 -10 5 -15 4 -15 -5 -1 -8 -6 -5 -15 6 -13 17 -15 18 -15 3
0 -9 -4 -17 -10 -17 -5 0 -10 6 -10 13 0 9 -3 8 -9 -2 -7 -11 -9 -11 -14 0 -4
10 -6 10 -6 2 -1 -7 -6 -13 -12 -13 -5 0 -7 5 -4 10 3 6 1 10 -4 10 -6 0 -12
-4 -12 -10 -1 -5 -2 -14 -3 -19 0 -5 -4 -13 -8 -17 -4 -3 -5 4 -3 16 3 18 2
21 -7 12 -15 -15 -32 -16 -23 -2 10 16 -1 11 -16 -7 -12 -15 -12 -16 1 -8 8 4
12 4 8 0 -13 -14 -59 -15 -52 -2 5 8 3 8 -7 0 -7 -7 -17 -13 -22 -13 -4 0 -5
6 -1 13 6 9 4 9 -7 1 -8 -5 -27 -10 -42 -9 -19 1 -26 -3 -22 -13 2 -7 1 -11
-4 -7 -5 3 -12 -1 -15 -7 -4 -7 -4 -3 -2 10 2 12 0 22 -5 22 -5 0 -9 -7 -9
-15 0 -8 -5 -15 -11 -15 -5 0 -7 6 -3 13 5 8 3 8 -9 -2 -9 -7 -14 -18 -10 -25
4 -7 1 -7 -8 1 -12 10 -18 10 -29 0 -10 -9 -11 -9 -6 1 9 15 1 15 -26 1 -15
-8 -19 -8 -14 0 8 13 -21 10 -43 -3 -10 -6 -12 -5 -7 2 9 15 -36 12 -46 -3 -5
-6 -8 -5 -8 3 0 6 -5 12 -12 12 -6 0 -8 -3 -5 -7 4 -3 -1 -12 -11 -19 -13 -9
-20 -10 -31 -1 -12 10 -14 9 -9 -4 4 -9 1 -16 -7 -16 -7 0 -11 7 -8 16 4 12 1
12 -10 -2 -13 -15 -19 -16 -36 -7 -12 6 -21 7 -21 2 0 -4 -25 -5 -55 -2 -43 5
-55 3 -55 -8 0 -7 -5 -10 -10 -7 -6 4 -7 12 -3 18 5 9 3 9 -8 1 -8 -6 -22 -10
-31 -9 -9 2 -25 -7 -35 -18 -18 -22 -18 -22 3 -4 19 16 22 16 28 2 3 -10 2
-14 -5 -10 -5 4 -16 1 -24 -5 -12 -10 -16 -9 -21 5 -5 13 -9 14 -15 3 -7 -11
-11 -10 -19 2 -6 10 -10 11 -10 2 0 -14 -21 -12 -32 3 -5 6 -8 6 -8 -1 0 -6
-12 -11 -27 -12 -44 0 -46 -1 -32 -19 12 -14 12 -16 0 -8 -22 13 -71 12 -71
-2 0 -7 -5 -13 -11 -13 -6 0 -8 7 -5 16 5 13 3 14 -6 7 -7 -5 -20 -9 -28 -8
-8 0 -18 -4 -22 -10 -5 -6 -8 -5 -8 4 0 11 -3 11 -17 0 -14 -12 -16 -12 -9 0
6 9 5 12 -5 9 -8 -3 -13 -11 -11 -17 1 -8 -2 -9 -10 -5 -20 13 -48 15 -48 5 0
-6 9 -8 20 -6 11 2 18 0 15 -5 -6 -10 -24 -8 -44 4 -10 6 -12 5 -7 -3 5 -8
-11 -11 -59 -10 -36 1 -68 -1 -71 -4 -3 -3 -18 -2 -33 3 -22 6 -30 4 -40 -12
-6 -10 -16 -16 -20 -13 -5 3 -11 2 -14 -2 -2 -5 -3 -3 -1 3 5 24 -12 33 -25
13 -10 -17 -10 -20 1 -13 7 4 9 3 5 -1 -11 -12 -37 -15 -37 -4 0 4 -7 6 -15 3
-8 -4 -13 -10 -10 -14 3 -5 -4 -6 -15 -3 -11 3 -18 9 -15 13 5 9 -42 7 -51 -3
-4 -4 -13 -2 -21 5 -11 9 -12 7 -7 -7 6 -15 4 -16 -14 -6 -13 7 -22 8 -22 2 0
-5 6 -12 13 -14 8 -4 7 -6 -3 -7 -8 -1 -25 -3 -38 -4 -13 -2 -25 1 -27 5 -3 4
-14 5 -25 2 -11 -3 -18 -9 -15 -12 2 -4 -2 -8 -10 -8 -8 0 -12 4 -9 9 7 11
-30 5 -48 -8 -15 -12 -28 -12 -44 -1 -7 4 -18 -1 -25 -10 -8 -10 -9 -14 -2
-10 6 4 14 4 16 0 3 -5 -23 -8 -58 -8 -35 0 -61 3 -58 8 2 4 -1 7 -6 7 -6 0
-11 -5 -11 -10 0 -7 -6 -7 -20 0 -11 6 -20 7 -20 2 0 -4 -14 -7 -30 -6 -27 2
-29 0 -18 -14 11 -13 11 -14 0 -8 -7 4 -20 2 -30 -6 -15 -12 -16 -11 -3 5 8 9
11 20 7 24 -3 3 -6 1 -6 -6 0 -9 -8 -11 -21 -8 -17 5 -18 3 -8 -9 10 -12 10
-15 -2 -12 -8 2 -17 8 -21 13 -5 6 -8 5 -8 -2 0 -7 -7 -13 -15 -13 -8 0 -15 6
-15 13 0 9 -2 9 -9 -1 -11 -17 -21 -17 -32 0 -7 11 -9 11 -9 -1 0 -8 -7 -11
-20 -8 -11 3 -23 0 -27 -5 -3 -6 -1 -8 5 -4 6 3 14 1 18 -6 4 -7 4 -10 -1 -6
-4 4 -15 2 -23 -5 -13 -9 -14 -9 -8 1 4 7 2 12 -5 12 -8 0 -7 5 2 18 13 15 12
16 -3 4 -9 -8 -15 -19 -12 -27 3 -7 0 -16 -7 -21 -7 -4 -10 -3 -6 3 4 6 -4 11
-18 11 -16 0 -22 -5 -18 -12 4 -6 -2 -4 -12 4 -15 12 -19 13 -23 1 -4 -11 -6
-11 -12 0 -7 10 -12 10 -26 -2 -10 -8 -15 -9 -11 -3 4 7 -2 12 -18 12 -15 0
-22 -5 -18 -12 3 -6 0 -6 -8 2 -7 6 -17 12 -22 12 -4 0 -5 -6 -1 -12 5 -8 1
-8 -10 1 -15 13 -19 13 -27 0 -5 -8 -9 -9 -9 -2 0 6 -10 11 -22 9 -27 -3 -36
-11 -24 -23 5 -5 6 -2 1 6 -5 10 -4 12 4 7 21 -13 1 -25 -24 -14 -13 6 -22 15
-18 21 3 6 1 7 -5 3 -6 -3 -9 -15 -7 -25 3 -16 -1 -18 -30 -11 -23 5 -36 4
-39 -4 -3 -7 -5 -7 -5 2 -1 6 -8 12 -16 12 -8 0 -15 -6 -15 -12 0 -10 -2 -10
-9 0 -6 11 -10 10 -16 -5 -5 -10 -7 -22 -6 -27 1 -5 -6 -3 -16 4 -28 22 -29
24 -11 17 10 -3 19 -3 22 1 3 4 -4 8 -14 9 -11 1 -22 -3 -25 -8 -4 -5 -11 -6
-17 -3 -6 4 -8 3 -5 -2 3 -6 2 -16 -4 -24 -7 -12 -9 -12 -9 3 0 14 -4 16 -19
7 -25 -13 -34 -13 -25 1 5 8 1 8 -14 0 -15 -8 -22 -8 -25 2 -4 9 -6 9 -6 -1
-1 -7 -5 -10 -11 -7 -5 3 -10 1 -10 -5 0 -6 -5 -8 -10 -5 -6 4 -8 12 -4 18 3
7 -3 2 -14 -10 -11 -12 -22 -19 -26 -16 -3 4 -6 2 -6 -3 0 -5 -19 -9 -42 -8
-24 0 -51 -4 -62 -9 -12 -6 -16 -5 -12 1 3 6 -4 9 -18 8 -16 -1 -22 -6 -18
-16 5 -13 4 -13 -13 0 -11 9 -16 10 -11 3 4 -8 1 -13 -8 -13 -10 0 -13 6 -10
18 3 9 -1 6 -9 -7 -10 -17 -16 -20 -22 -11 -6 9 -13 7 -27 -11 -11 -13 -17
-19 -14 -13 3 7 -3 14 -14 17 -11 3 -20 1 -20 -5 0 -5 -5 -6 -11 -3 -16 11
-59 13 -59 4 0 -5 -11 -4 -25 1 -18 7 -25 6 -26 -3 0 -6 -4 -3 -9 8 l-9 20 0
-20 c-1 -11 -4 -16 -9 -10 -6 10 -23 12 -37 5 -3 -1 -14 -3 -26 -4 -11 0 -26
-8 -32 -16 -15 -19 -52 -27 -41 -8 6 10 4 10 -9 -1 -14 -11 -17 -11 -17 0 0 8
-9 4 -19 -11 -13 -16 -17 -30 -11 -40 6 -10 3 -21 -8 -33 -15 -17 -15 -17 1
-11 13 5 16 2 11 -10 -3 -9 -11 -13 -18 -9 -7 4 -7 2 1 -8 9 -11 9 -19 2 -26
-8 -8 -7 -13 2 -18 8 -5 10 -4 5 3 -4 7 -2 12 3 12 14 0 14 -17 1 -25 -6 -4
-8 -11 -5 -16 4 -5 1 -9 -6 -9 -7 0 -5 -6 6 -13 14 -11 15 -16 5 -22 -10 -6
-9 -9 1 -16 11 -7 9 -9 -6 -9 -19 -1 -19 -1 -2 -11 14 -8 16 -14 6 -25 -6 -8
-8 -14 -4 -14 4 0 2 -7 -5 -15 -7 -9 -10 -18 -6 -22 3 -3 6 -1 6 5 0 7 5 12
10 12 7 0 7 -6 0 -20 -8 -15 -8 -20 2 -20 6 0 4 -6 -7 -13 -14 -11 -15 -16 -5
-22 9 -6 11 -4 5 5 -5 9 -4 11 4 6 8 -6 9 -12 2 -20 -6 -7 -8 -16 -4 -19 3 -4
0 -7 -7 -7 -9 0 -8 -5 5 -13 14 -11 15 -16 5 -22 -10 -6 -9 -9 1 -16 11 -7 9
-9 -6 -9 -19 -1 -19 -1 -2 -11 14 -8 16 -14 6 -25 -6 -8 -8 -14 -4 -14 4 0 2
-7 -5 -15 -7 -9 -10 -18 -6 -22 3 -3 6 -1 6 5 0 7 5 12 10 12 7 0 7 -6 0 -20
-8 -15 -8 -20 2 -20 6 0 4 -6 -7 -13 -14 -11 -15 -16 -5 -22 9 -6 11 -4 5 5
-5 9 -4 11 4 6 8 -6 9 -12 2 -20 -6 -7 -8 -16 -4 -19 3 -4 0 -7 -7 -7 -9 0 -8
-5 5 -13 14 -11 15 -16 5 -22 -10 -6 -9 -9 1 -16 11 -7 9 -9 -6 -9 -19 -1 -19
-1 -2 -11 14 -8 16 -14 6 -25 -6 -8 -8 -14 -4 -14 4 0 2 -7 -5 -15 -7 -9 -10
-18 -6 -22 3 -3 6 -1 6 5 0 7 5 12 10 12 7 0 7 -6 0 -20 -8 -15 -8 -20 2 -20
6 0 4 -6 -7 -13 -14 -11 -15 -16 -5 -22 9 -6 11 -4 5 5 -5 9 -4 11 4 6 8 -6 9
-12 2 -20 -6 -7 -8 -16 -4 -19 3 -4 0 -7 -7 -7 -9 0 -8 -5 5 -13 14 -11 15
-16 5 -22 -10 -6 -9 -9 1 -16 11 -7 9 -9 -6 -9 -19 -1 -19 -1 -2 -11 14 -8 16
-14 6 -25 -6 -8 -8 -14 -4 -14 4 0 2 -7 -5 -15 -7 -9 -10 -18 -6 -22 3 -3 6
-1 6 5 0 7 5 12 10 12 7 0 7 -6 0 -20 -8 -15 -8 -20 2 -20 6 0 4 -6 -7 -13
-14 -11 -15 -16 -5 -22 9 -6 11 -4 5 5 -5 9 -4 11 4 6 8 -6 9 -12 2 -20 -6 -7
-8 -16 -4 -19 3 -4 0 -7 -7 -7 -9 0 -8 -5 5 -13 14 -11 15 -16 5 -22 -10 -6
-9 -9 1 -16 11 -7 9 -9 -6 -9 -19 -1 -19 -1 -2 -11 14 -8 16 -14 6 -25 -6 -8
-8 -14 -4 -14 4 0 2 -7 -5 -15 -7 -9 -10 -18 -6 -22 3 -3 6 -1 6 5 0 7 5 12
10 12 7 0 7 -6 0 -20 -8 -15 -8 -20 2 -20 6 0 4 -6 -7 -13 -14 -11 -15 -16 -5
-22 9 -6 11 -4 5 5 -5 9 -4 11 4 6 8 -6 9 -12 2 -20 -6 -7 -8 -16 -4 -19 3 -4
0 -7 -7 -7 -9 0 -8 -5 5 -13 14 -11 15 -16 5 -22 -10 -6 -9 -9 1 -16 11 -7 9
-9 -6 -9 -19 -1 -19 -1 -2 -11 14 -8 16 -14 6 -25 -6 -8 -8 -14 -4 -14 4 0 2
-7 -5 -15 -7 -9 -10 -18 -6 -22 3 -3 6 -1 6 5 0 7 5 12 10 12 7 0 7 -6 0 -20
-8 -15 -8 -20 2 -20 6 0 4 -6 -7 -13 -14 -11 -15 -16 -5 -22 9 -6 11 -4 5 5
-5 9 -4 11 4 6 8 -6 9 -12 2 -20 -6 -7 -8 -16 -4 -19 3 -4 0 -7 -7 -7 -9 0 -8
-5 5 -13 14 -11 15 -16 5 -22 -10 -6 -9 -9 1 -16 11 -7 9 -9 -6 -9 -19 -1 -19
-1 -2 -11 14 -8 16 -14 6 -25 -6 -8 -8 -14 -4 -14 4 0 2 -7 -5 -15 -7 -9 -10
-18 -6 -22 3 -3 6 -1 6 5 0 7 5 12 10 12 7 0 7 -6 0 -20 -8 -15 -8 -20 2 -20
6 0 4 -6 -7 -13 -14 -11 -15 -16 -5 -22 9 -6 11 -4 5 5 -5 9 -4 11 4 6 8 -6 9
-12 2 -20 -6 -7 -8 -16 -4 -19 3 -4 0 -7 -7 -7 -9 0 -8 -5 5 -13 14 -11 15
-16 5 -22 -10 -6 -9 -9 1 -16 11 -7 9 -9 -6 -9 -19 -1 -19 -1 -2 -11 14 -8 16
-14 6 -25 -6 -8 -8 -14 -4 -14 4 0 2 -7 -5 -15 -7 -9 -10 -18 -6 -22 3 -3 6
-1 6 5 0 7 5 12 10 12 7 0 7 -6 0 -20 -8 -15 -8 -20 2 -20 6 0 4 -6 -7 -13
-14 -11 -15 -16 -5 -22 9 -6 11 -4 5 5 -5 9 -4 11 4 6 8 -6 9 -12 2 -20 -6 -7
-8 -16 -4 -19 3 -4 0 -7 -7 -7 -9 0 -8 -5 5 -13 14 -11 15 -16 5 -22 -10 -6
-9 -9 1 -16 11 -7 9 -9 -6 -9 -19 -1 -19 -1 -2 -11 14 -8 16 -14 6 -25 -6 -8
-8 -14 -4 -14 4 0 2 -7 -5 -15 -7 -9 -10 -18 -6 -22 3 -3 6 -1 6 5 0 7 5 12
10 12 7 0 7 -6 0 -20 -8 -15 -8 -20 2 -20 6 0 4 -6 -7 -13 -14 -11 -15 -16 -5
-22 9 -6 11 -4 5 5 -5 9 -4 11 4 6 8 -6 9 -12 2 -20 -6 -7 -8 -16 -4 -19 3 -4
0 -7 -7 -7 -9 0 -8 -5 5 -13 14 -11 15 -16 5 -22 -10 -6 -9 -9 1 -16 11 -7 9
-9 -6 -9 -19 -1 -19 -1 -2 -11 14 -8 16 -14 6 -25 -6 -8 -8 -14 -4 -14 4 0 2
-7 -5 -15 -7 -9 -10 -18 -6 -22 3 -3 6 -1 6 5 0 7 5 12 10 12 7 0 7 -6 0 -20
-8 -15 -8 -20 2 -20 6 0 4 -6 -7 -13 -14 -11 -15 -16 -5 -22 9 -6 11 -4 5 5
-5 9 -4 11 4 6 8 -6 9 -12 2 -20 -6 -7 -8 -16 -4 -19 3 -4 0 -7 -7 -7 -9 0 -8
-5 5 -13 14 -11 15 -16 5 -22 -10 -6 -9 -9 1 -16 11 -7 9 -9 -6 -9 -19 -1 -19
-1 -2 -11 14 -8 16 -14 6 -25 -6 -8 -8 -14 -4 -14 4 0 2 -7 -5 -15 -7 -9 -10
-18 -6 -22 3 -3 6 -1 6 5 0 7 5 12 10 12 7 0 7 -6 0 -20 -8 -15 -8 -20 2 -20
6 0 4 -6 -7 -13 -14 -11 -15 -16 -5 -22 9 -6 11 -4 5 5 -5 9 -4 11 4 6 8 -6 9
-12 2 -20 -6 -7 -8 -16 -4 -19 3 -4 0 -7 -7 -7 -9 0 -8 -5 5 -13 14 -11 15
-16 5 -22 -10 -6 -9 -9 1 -16 11 -7 9 -9 -6 -9 -19 -1 -19 -1 -2 -11 14 -8 16
-14 6 -25 -6 -8 -8 -14 -4 -14 4 0 2 -7 -5 -15 -7 -9 -10 -18 -6 -22 3 -3 6
-1 6 5 0 7 5 12 10 12 7 0 7 -6 0 -20 -8 -15 -8 -20 2 -20 6 0 4 -6 -7 -13
-14 -11 -15 -16 -5 -22 9 -6 11 -4 5 5 -5 9 -4 11 4 6 8 -6 9 -12 2 -20 -6 -7
-8 -16 -4 -19 3 -4 0 -7 -7 -7 -9 0 -8 -5 5 -13 14 -11 15 -16 5 -22 -10 -6
-9 -9 1 -16 11 -7 9 -9 -6 -9 -19 -1 -19 -1 -2 -11 14 -8 16 -14 6 -25 -6 -8
-8 -14 -4 -14 4 0 2 -7 -5 -15 -7 -9 -10 -18 -6 -22 3 -3 6 -1 6 5 0 7 5 12
10 12 7 0 7 -6 0 -20 -8 -15 -8 -20 2 -20 6 0 4 -6 -7 -13 -14 -11 -15 -16 -5
-22 9 -6 11 -4 5 5 -5 9 -4 11 4 6 8 -6 9 -12 2 -20 -6 -7 -8 -16 -4 -19 3 -4
0 -7 -7 -7 -9 0 -8 -5 5 -13 14 -11 15 -16 5 -22 -10 -6 -9 -9 1 -16 11 -7 9
-9 -6 -9 -19 -1 -19 -1 -2 -11 14 -8 16 -14 6 -25 -6 -8 -8 -14 -4 -14 4 0 2
-7 -5 -15 -7 -9 -10 -18 -6 -22 3 -3 6 -1 6 5 0 7 5 12 10 12 7 0 7 -6 0 -20
-8 -15 -8 -20 2 -20 6 0 4 -6 -7 -13 -14 -11 -15 -16 -5 -22 9 -6 11 -4 5 5
-5 9 -4 11 4 6 8 -6 9 -12 2 -20 -6 -7 -8 -16 -4 -19 3 -4 0 -7 -7 -7 -9 0 -8
-5 5 -13 14 -11 15 -16 5 -22 -10 -6 -9 -9 1 -16 11 -7 9 -9 -6 -9 -19 -1 -19
-1 -2 -11 14 -8 16 -14 6 -25 -6 -8 -8 -14 -4 -14 4 0 2 -7 -5 -15 -7 -9 -10
-18 -6 -22 3 -3 6 -1 6 5 0 7 5 12 10 12 7 0 7 -6 0 -20 -8 -15 -8 -20 2 -20
6 0 4 -6 -7 -13 -14 -11 -15 -16 -5 -22 9 -6 11 -4 5 5 -5 9 -4 11 4 6 8 -6 9
-12 2 -20 -6 -7 -8 -16 -4 -19 3 -4 0 -7 -7 -7 -9 0 -8 -5 5 -13 14 -11 15
-16 5 -22 -10 -6 -9 -9 1 -16 11 -7 9 -9 -6 -9 -19 -1 -19 -1 -2 -11 14 -8 16
-14 6 -25 -6 -8 -8 -14 -4 -14 4 0 2 -7 -5 -15 -7 -9 -10 -18 -6 -22 3 -3 6
-1 6 5 0 7 5 12 10 12 7 0 7 -6 0 -20 -8 -15 -8 -20 2 -20 6 0 4 -6 -7 -13
-14 -11 -15 -16 -5 -22 9 -6 11 -4 5 5 -5 9 -4 11 4 6 8 -6 9 -12 2 -20 -6 -7
-8 -16 -4 -19 3 -4 0 -7 -7 -7 -9 0 -8 -5 5 -13 14 -11 15 -16 5 -22 -10 -6
-9 -9 1 -16 11 -7 10 -9 -4 -9 -16 0 -17 -2 -3 -15 8 -8 13 -24 11 -35 -2 -12
2 -20 10 -20 7 0 16 -7 19 -16 5 -13 4 -14 -7 -6 -10 9 -14 8 -14 -3 0 -7 3
-14 6 -13 19 2 31 -3 27 -11 -3 -4 2 -8 12 -8 59 0 65 -2 51 -20 -11 -15 -11
-16 0 -6 7 6 21 9 30 5 14 -5 15 -4 1 14 -14 18 -14 18 3 5 13 -11 15 -17 6
-28 -10 -11 -9 -12 5 -7 9 3 16 1 16 -6 0 -6 5 -8 10 -5 6 3 10 1 10 -4 0 -6
-5 -11 -12 -11 -6 0 -8 -3 -5 -6 4 -4 13 -1 22 6 12 10 13 16 3 29 -11 14 -11
14 3 4 9 -7 20 -9 24 -5 5 4 5 1 1 -6 -4 -7 -1 -15 9 -18 12 -5 13 -9 4 -20
-10 -12 -8 -13 6 -8 13 5 16 4 11 -4 -12 -20 3 -33 25 -21 24 12 41 2 19 -11
-11 -7 -5 -8 18 -5 19 2 30 0 26 -6 -3 -5 -10 -6 -16 -3 -7 4 -8 2 -4 -5 4 -6
12 -9 17 -6 5 4 9 1 9 -5 0 -7 7 -4 16 5 9 9 19 13 23 9 3 -4 0 -9 -6 -11 -14
-5 -18 -24 -5 -22 25 4 34 -2 23 -14 -8 -10 -7 -14 4 -14 8 0 12 4 9 9 -3 4 0
8 6 8 6 0 8 5 4 13 -6 8 -3 8 9 -1 9 -8 22 -10 29 -6 10 5 11 4 1 -7 -18 -18
-16 -30 4 -22 10 4 14 2 10 -4 -4 -6 1 -17 10 -24 9 -8 14 -9 10 -3 -4 7 1 18
10 25 12 10 14 10 9 2 -4 -8 -2 -13 5 -13 8 0 8 -4 -1 -15 -11 -13 -10 -14 6
-8 10 3 23 11 27 17 5 6 6 2 2 -10 -4 -14 0 -24 9 -27 10 -4 13 -1 10 7 -3 8
1 17 8 22 7 4 10 4 6 -1 -4 -4 -3 -14 3 -22 6 -7 8 -13 3 -13 -12 0 19 -20 31
-20 6 0 3 5 -5 11 -13 9 -13 10 0 6 9 -2 15 -15 14 -30 -1 -21 2 -25 11 -17 7
6 11 21 9 33 -4 20 -4 20 6 -2 7 -17 7 -28 -2 -40 -10 -13 -10 -14 2 -4 22 20
43 16 37 -7 -3 -11 -1 -18 3 -15 5 3 11 -1 13 -7 4 -10 6 -10 6 0 1 7 6 10 13
6 6 -4 8 -3 5 2 -3 6 4 11 15 11 16 2 18 -1 9 -10 -6 -6 -11 -15 -11 -21 0 -5
3 -6 7 -3 3 4 12 -1 20 -11 12 -14 14 -14 10 -1 -3 9 1 16 9 16 8 0 14 -7 14
-14 0 -8 4 -11 10 -8 5 3 10 0 10 -8 0 -8 7 -20 16 -27 8 -8 14 -9 13 -4 -1 5
-1 18 0 29 1 17 4 16 21 -10 11 -16 18 -36 15 -43 -3 -7 0 -10 6 -7 6 4 8 13
6 19 -3 7 1 13 8 13 8 0 11 -7 8 -16 -5 -13 -3 -14 8 -4 7 7 18 13 24 13 5 0
3 -5 -5 -10 -11 -7 -11 -10 -2 -10 8 0 10 -5 6 -12 -5 -9 -2 -8 9 1 16 12 17
12 11 -5 -5 -18 -4 -18 12 1 15 18 16 18 10 2 -6 -19 4 -33 39 -54 11 -6 19
-16 17 -23 -1 -6 2 -8 8 -5 8 5 6 13 -4 24 -14 15 -14 18 -1 18 8 0 12 -4 9
-9 -9 -15 28 -22 38 -7 7 10 8 8 3 -8 -5 -18 -3 -22 9 -17 11 4 14 -1 12 -20
-3 -21 0 -24 14 -16 10 5 20 6 24 2 4 -3 5 0 3 8 -2 8 -2 12 0 7 3 -4 9 -5 14
-2 5 4 6 -2 2 -11 -4 -12 -3 -15 5 -10 7 4 12 2 12 -6 0 -18 44 -37 63 -27 12
7 14 5 10 -10 -3 -11 2 -21 13 -25 13 -5 15 -4 5 7 -9 11 -7 17 6 28 16 13 17
12 4 -4 -13 -16 -12 -18 12 -13 19 3 24 1 20 -10 -3 -7 2 -21 11 -30 9 -8 13
-21 9 -27 -5 -9 -3 -9 8 -1 8 6 23 14 33 18 17 6 17 5 5 -11 -13 -15 -12 -16
8 -11 20 5 21 4 12 -14 -8 -15 -8 -19 0 -14 6 4 11 2 11 -4 0 -6 5 -8 10 -5 6
4 8 10 5 15 -3 5 -1 11 4 14 4 3 8 -4 7 -17 -1 -22 3 -24 39 -12 16 5 17 5 5
-4 -8 -5 -11 -13 -7 -17 4 -4 12 -3 18 3 14 14 39 5 39 -14 0 -8 5 -11 12 -7
7 5 9 2 5 -9 -3 -8 1 -21 9 -27 8 -7 14 -8 14 -3 0 5 11 9 24 9 14 0 22 -4 19
-8 -2 -5 1 -16 8 -24 10 -13 14 -13 34 0 21 14 23 14 18 -4 -4 -14 0 -20 11
-20 9 0 16 -4 16 -10 0 -11 28 -9 50 5 12 7 13 6 3 -7 -7 -8 -9 -19 -5 -24 4
-4 0 -3 -10 4 -13 11 -18 10 -24 0 -4 -7 -3 -10 1 -5 5 4 17 -1 28 -10 11 -10
17 -13 14 -6 -4 6 -3 14 3 18 5 3 10 -3 10 -13 0 -11 8 -26 17 -33 10 -8 14
-9 10 -2 -4 6 -3 14 3 18 5 3 10 1 10 -6 0 -8 5 -7 17 2 11 10 14 10 9 2 -7
-12 5 -18 27 -14 5 1 6 -3 2 -9 -3 -6 -10 -8 -15 -5 -5 3 -12 0 -16 -6 -4 -8
-3 -9 4 -5 7 4 12 1 12 -6 0 -8 3 -9 8 -3 10 14 32 17 32 5 0 -6 8 -10 18 -10
10 0 27 -7 38 -16 18 -14 18 -15 -6 -4 -24 11 -24 10 -6 -4 13 -11 23 -13 30
-6 5 5 15 10 20 10 6 0 4 -5 -4 -10 -11 -7 -11 -10 -2 -10 7 0 11 -4 7 -9 -3
-5 -1 -13 5 -16 6 -4 9 -1 8 6 -2 6 3 14 11 17 8 3 11 0 7 -7 -4 -6 -2 -11 3
-11 6 0 11 6 11 13 0 6 5 4 11 -6 6 -9 14 -15 20 -12 5 4 9 1 9 -5 0 -6 4 -9
9 -5 10 6 34 -29 26 -37 -3 -3 5 -4 18 -3 30 3 44 -4 51 -22 5 -13 4 -14 -9
-3 -10 8 -15 9 -15 1 0 -11 11 -14 45 -12 17 2 17 0 5 -8 -13 -9 -13 -11 2
-11 10 0 17 -5 15 -11 -1 -6 8 -12 21 -14 21 -2 21 -1 5 17 -9 10 -13 18 -9
18 12 0 34 -25 37 -45 3 -11 15 -19 34 -21 22 -2 26 -1 15 6 -8 5 -10 10 -4
10 6 0 17 -7 24 -15 7 -8 17 -12 23 -8 6 3 7 1 3 -5 -4 -6 -13 -9 -21 -5 -23
8 -17 -5 8 -18 12 -6 19 -8 15 -4 -4 4 -1 13 5 20 10 10 15 9 25 -6 7 -11 11
-23 8 -27 -2 -4 6 -8 19 -8 14 0 21 4 17 11 -3 5 1 4 10 -2 8 -7 19 -9 24 -5
4 4 2 -2 -6 -12 -12 -15 -12 -20 -2 -23 6 -3 9 -10 5 -16 -3 -7 6 -1 22 13 26
23 27 24 16 3 -8 -17 -8 -24 1 -29 19 -12 48 -12 41 -1 -3 6 -1 7 6 3 6 -4 9
-17 6 -29 -2 -12 -2 -16 1 -10 3 7 10 13 15 13 6 0 8 -4 4 -9 -3 -5 0 -13 6
-17 8 -4 9 -3 5 4 -4 7 -1 12 9 12 10 0 13 -5 9 -12 -5 -8 0 -7 11 2 11 9 16
10 11 2 -4 -7 -2 -12 4 -12 6 0 8 -5 4 -12 -6 -10 -3 -9 8 0 14 11 20 10 38
-8 11 -11 19 -24 16 -29 -3 -4 1 -8 9 -8 10 0 12 4 5 12 -11 14 25 14 37 0 5
-4 2 -5 -4 -1 -7 4 -13 3 -13 -1 0 -5 16 -15 35 -22 19 -7 35 -17 35 -22 0 -5
8 -9 18 -9 14 0 15 2 2 10 -8 5 -10 10 -4 10 5 0 18 -6 29 -13 14 -11 15 -16
5 -22 -9 -5 -11 -4 -6 3 4 7 3 12 -3 12 -20 0 -19 -16 1 -29 11 -7 17 -8 13
-2 -4 7 3 10 19 9 13 -1 22 -6 20 -10 -3 -5 -10 -5 -16 -2 -7 4 -8 2 -4 -5 5
-7 16 -9 28 -5 15 5 20 3 16 -7 -4 -10 4 -14 31 -14 20 0 39 5 43 10 5 6 8 5
8 -3 0 -10 5 -10 23 -1 21 12 21 11 7 -7 -15 -18 -14 -18 12 -1 17 10 29 13
33 7 4 -6 11 -8 16 -4 17 10 68 11 62 0 -4 -5 1 -7 12 -3 9 4 25 2 33 -5 11
-9 14 -9 9 -1 -9 15 34 14 46 -2 5 -6 6 -2 3 9 -5 15 -2 17 14 13 17 -4 19 -3
10 8 -8 10 -8 15 1 21 8 5 9 3 4 -6 -6 -10 -4 -12 8 -7 12 4 15 2 11 -11 -5
-14 -4 -15 5 -2 6 8 11 11 11 6 0 -5 9 -1 20 9 15 14 20 15 20 4 0 -11 2 -11
10 1 8 12 10 12 10 1 0 -11 3 -11 17 0 15 12 16 12 8 -1 -8 -13 -7 -13 8 -1
14 11 17 11 17 0 0 -12 2 -12 9 0 5 7 14 10 20 7 6 -4 11 -2 11 4 0 7 7 7 23
-1 20 -11 21 -11 9 4 -11 13 -10 15 12 13 15 -2 26 1 26 5 0 5 5 9 11 9 5 0 8
-4 5 -9 -7 -11 45 -1 62 12 9 7 16 7 20 1 9 -12 28 -12 39 0 4 5 3 6 -4 2 -6
-3 -15 -1 -19 5 -4 8 -3 9 4 5 7 -4 12 -1 12 6 1 7 7 2 15 -12 8 -14 14 -19
15 -12 0 7 4 11 9 8 5 -3 15 2 22 11 12 15 12 16 -1 8 -21 -13 -41 -15 -34 -4
3 5 9 7 14 4 5 -3 11 -1 14 3 3 5 17 7 31 5 15 -3 22 -10 18 -17 -5 -8 -3 -8
8 0 19 15 110 15 128 1 12 -10 13 -9 6 2 -6 11 -3 13 18 7 14 -3 29 -2 32 4 4
6 -1 7 -12 4 -14 -4 -15 -4 -4 4 7 5 18 16 23 23 8 11 9 10 4 -3 -3 -10 -1
-20 4 -23 10 -6 15 9 10 30 -1 5 9 1 21 -10 12 -11 19 -15 16 -9 -10 16 25 28
35 12 6 -10 8 -10 8 2 0 12 2 13 9 1 7 -11 9 -11 14 0 5 12 6 12 6 0 1 -11 4
-11 16 -1 12 10 15 10 15 0 0 -10 3 -10 15 0 12 10 15 10 15 -1 1 -9 5 -8 15
5 15 20 50 33 39 15 -3 -5 -10 -6 -16 -3 -7 4 -8 2 -4 -4 5 -8 13 -9 25 -2 10
5 22 6 27 2 5 -4 3 0 -3 8 -10 13 -1 15 68 15 75 -1 79 0 73 20 -3 12 -2 15 3
8 5 -6 20 -14 35 -17 20 -3 25 -1 21 10 -3 8 0 14 6 14 6 0 11 -6 11 -12 0 -9
3 -9 8 -2 14 20 41 24 51 6 6 -9 11 -12 11 -6 0 7 7 15 16 18 8 3 13 2 10 -2
-2 -4 4 -8 14 -8 10 0 17 4 14 7 -2 4 0 10 6 14 5 3 10 1 10 -5 0 -6 5 -8 10
-5 8 5 7 12 -2 23 -12 15 -11 16 4 3 10 -7 15 -17 12 -22 -3 -5 0 -9 5 -9 6 0
11 10 11 21 0 19 2 20 17 8 14 -12 17 -12 21 0 4 11 6 11 13 0 7 -11 9 -11 9
-1 0 7 5 10 11 7 16 -11 59 -13 53 -4 -3 5 6 9 21 9 14 0 28 6 31 14 4 12 12
13 31 5 23 -8 24 -8 13 6 -11 13 -8 13 25 -1 23 -9 34 -11 30 -3 -5 8 -1 9 14
4 13 -4 21 -2 21 5 0 6 5 8 10 5 6 -4 8 -10 5 -15 -7 -11 36 0 54 14 12 9 14
8 9 -4 -4 -11 2 -15 23 -15 15 -1 26 2 24 5 -2 4 9 7 25 7 26 0 28 -3 18 -16
-8 -10 -4 -8 10 3 12 11 22 16 22 11 0 -4 6 -3 13 4 10 8 17 7 25 -1 9 -9 12
-8 12 6 0 9 4 15 9 12 5 -4 11 0 14 6 3 10 9 10 25 1 17 -10 22 -9 34 7 7 11
20 20 28 22 8 2 19 8 23 13 5 6 7 4 4 -5 -2 -8 -9 -15 -15 -15 -6 0 -17 -7
-24 -15 -11 -12 -11 -12 3 -2 9 6 19 9 22 5 4 -3 16 5 27 18 17 20 21 22 30 9
9 -13 10 -13 10 0 0 13 1 13 10 0 8 -13 11 -13 19 -1 5 8 14 10 22 5 8 -4 22
-9 31 -9 14 -1 15 1 6 12 -6 7 -8 16 -4 20 3 3 6 1 6 -7 0 -10 4 -10 17 1 15
12 16 12 11 -3 -4 -9 -2 -15 5 -14 24 3 36 17 31 34 -5 14 -3 14 10 -2 9 -11
16 -16 16 -10 0 5 27 10 60 10 36 1 57 -2 54 -8 -4 -6 3 -5 14 1 27 14 35 14
26 -1 -5 -7 -3 -8 7 -3 7 5 28 8 47 7 25 -2 32 1 26 10 -6 10 -5 11 7 1 12
-10 18 -10 29 0 7 6 10 7 7 2 -3 -6 4 -12 16 -12 17 -2 19 0 7 7 -13 8 -13 11
-1 22 8 7 11 8 8 2 -4 -7 0 -15 9 -18 11 -4 15 -2 11 8 -4 11 -1 13 10 9 12
-5 14 -3 8 8 -5 8 2 5 15 -6 13 -11 20 -14 16 -7 -5 9 0 12 21 10 16 -1 34 1
40 5 6 4 15 2 19 -4 5 -8 3 -9 -6 -4 -9 6 -11 4 -5 -5 6 -10 11 -9 21 4 8 12
14 14 19 6 5 -8 11 -8 21 1 8 6 14 8 14 3 1 -5 10 2 20 15 11 13 20 18 20 11
0 -10 3 -10 14 -1 10 8 16 9 21 1 4 -7 12 -7 26 0 14 8 19 7 19 -1 0 -8 4 -8
15 1 12 10 15 10 15 0 0 -10 3 -10 14 -1 11 9 16 9 21 0 6 -8 10 -8 15 2 6 9
12 10 22 2 10 -8 18 -8 31 2 10 7 18 17 18 22 1 4 3 10 6 13 4 3 3 0 -1 -7 -3
-6 -2 -14 4 -18 5 -3 10 2 10 12 0 15 2 16 10 3 5 -8 10 -10 10 -4 0 8 11 9
34 4 19 -4 37 -6 40 -3 10 10 41 9 48 -1 5 -8 8 -7 8 2 0 6 7 12 16 12 8 0 13
4 9 9 -3 5 -1 12 5 16 5 3 10 2 10 -4 0 -13 24 -8 46 9 11 9 15 10 10 3 -5 -9
0 -13 14 -13 12 0 18 4 15 10 -4 6 2 7 17 1 13 -4 29 -6 37 -3 9 3 11 0 6 -9
-6 -11 -5 -12 6 -2 7 7 23 13 36 13 13 0 23 5 23 11 0 6 7 3 16 -5 16 -17 28
-21 21 -8 -3 4 5 16 16 27 11 11 17 14 13 8 -9 -16 -1 -16 25 -2 15 7 24 7 34
-1 10 -8 15 -8 20 1 6 8 10 8 15 -2 7 -10 11 -10 24 0 13 11 16 11 16 0 0 -11
2 -11 10 1 9 13 10 13 10 0 0 -13 1 -13 10 0 8 13 10 13 10 1 0 -11 4 -10 14
4 14 20 46 29 46 14 0 -5 5 -9 10 -9 6 0 10 8 10 18 0 14 2 15 10 2 8 -12 10
-12 10 -1 0 11 3 11 17 0 11 -10 14 -10 9 -1 -4 6 -3 12 1 12 5 0 15 -6 22
-12 12 -11 13 -10 7 6 -7 20 -7 20 15 0 12 -10 19 -13 15 -6 -4 6 -2 12 3 12
6 0 11 -5 11 -11 0 -5 5 -7 11 -4 6 4 8 13 5 21 -4 11 -1 12 12 6 9 -5 23 -7
30 -6 6 1 17 2 23 3 5 0 8 5 5 10 -10 16 34 20 49 4 8 -8 15 -10 15 -5 0 6 7
13 16 16 8 3 12 2 9 -4 -8 -13 8 -13 22 1 8 8 13 7 18 -2 6 -8 4 -10 -5 -4 -9
5 -11 4 -6 -4 12 -19 25 -3 21 27 -4 26 -4 26 7 5 6 -13 15 -23 20 -23 5 0 6
4 3 10 -3 5 -2 10 4 10 5 0 12 -6 14 -12 3 -8 6 -5 6 5 1 14 6 17 22 12 13 -4
19 -3 16 2 -4 5 0 10 8 10 8 0 15 -4 15 -9 0 -5 5 -6 12 -2 16 10 68 13 63 4
-3 -4 9 -7 24 -6 16 1 27 4 24 9 -5 9 27 4 47 -7 12 -7 13 -6 3 5 -17 17 -16
26 2 26 8 0 12 -4 10 -8 -3 -4 1 -9 9 -12 8 -3 13 1 12 10 0 9 5 18 13 21 8 2
11 0 8 -5 -3 -5 0 -10 8 -10 8 0 12 4 9 9 -3 4 0 8 5 8 6 0 11 -5 11 -12 0 -6
7 -3 16 8 8 10 13 14 10 8 -4 -8 8 -13 30 -16 24 -3 38 0 41 9 3 7 9 10 14 7
13 -7 7 19 -6 28 -5 4 -1 8 10 8 19 1 19 1 2 11 -14 8 -16 14 -6 25 9 11 8 14
-2 15 -8 0 -5 4 6 9 11 5 15 9 9 9 -16 1 -24 37 -11 50 8 8 7 11 -2 11 -7 0
-9 5 -6 10 4 6 11 8 16 5 5 -3 6 1 3 9 -3 9 -11 13 -18 9 -7 -4 -7 -1 1 9 7 8
10 18 6 21 -3 4 0 7 7 7 9 0 8 5 -5 13 -14 11 -15 16 -5 22 10 6 9 9 -1 16
-11 7 -9 9 5 9 19 0 19 0 1 13 -13 10 -15 16 -6 21 6 4 9 12 6 17 -4 5 -1 9 6
9 7 0 5 6 -6 13 -14 11 -15 16 -5 22 10 6 9 9 -1 16 -11 7 -9 9 5 9 19 0 19 0
1 13 -13 10 -15 16 -6 21 9 6 9 11 -1 24 -7 9 -8 13 -2 9 7 -4 12 2 12 18 0
16 -5 22 -12 18 -7 -4 -6 -1 1 9 7 8 10 18 6 21 -3 4 0 7 7 7 9 0 8 5 -5 13
-14 11 -15 16 -5 22 10 6 9 9 -1 16 -11 7 -9 9 5 9 19 0 19 0 1 13 -13 10 -15
16 -6 21 6 4 9 12 6 17 -4 5 -1 9 6 9 7 0 5 6 -6 13 -14 11 -15 16 -5 22 10 6
9 9 -1 16 -11 7 -9 9 5 9 19 0 19 0 1 13 -13 10 -15 16 -6 21 9 6 9 11 -1 24
-7 9 -8 13 -2 9 7 -4 12 2 12 18 0 16 -5 22 -12 18 -7 -4 -6 -1 1 9 7 8 10 18
6 21 -3 4 0 7 7 7 9 0 8 5 -5 13 -14 11 -15 16 -5 22 10 6 9 9 -1 16 -11 7 -9
9 5 9 19 0 19 0 1 13 -13 10 -15 16 -6 21 6 4 9 12 6 17 -4 5 -1 9 6 9 7 0 5
6 -6 13 -14 11 -15 16 -5 22 10 6 9 9 -1 16 -11 7 -9 9 5 9 19 0 19 0 1 13
-13 10 -15 16 -6 21 9 6 9 11 -1 24 -7 9 -8 13 -2 9 7 -4 12 2 12 18 0 16 -5
22 -12 18 -7 -4 -6 -1 1 9 7 8 10 18 6 21 -3 4 0 7 7 7 9 0 8 5 -5 13 -14 11
-15 16 -5 22 10 6 9 9 -1 16 -11 7 -9 9 5 9 19 0 19 0 1 13 -13 10 -15 16 -6
21 6 4 9 12 6 17 -4 5 -1 9 6 9 7 0 5 6 -6 13 -14 11 -15 16 -5 22 10 6 9 9
-1 16 -11 7 -9 9 6 9 19 1 19 1 2 11 -14 8 -16 14 -6 25 6 8 8 14 5 14 -4 0
-2 9 4 20 9 16 8 18 -5 14 -13 -5 -14 -2 -5 20 5 14 7 26 4 26 -2 0 1 10 7 23
11 20 11 21 -4 8 -16 -13 -25 -2 -10 13 9 9 13 87 4 81 -11 -6 -6 27 7 52 11
20 10 22 -4 16 -11 -4 -15 -2 -11 4 3 5 9 24 12 42 4 24 2 31 -6 25 -7 -4 -9
-3 -6 3 3 5 9 24 12 42 4 25 2 31 -7 25 -10 -6 -11 -5 -1 8 7 8 10 18 6 21 -3
4 0 7 8 7 10 1 9 4 -4 11 -14 8 -16 14 -6 25 9 11 9 14 -2 14 -8 0 -6 6 7 16
10 8 14 13 7 10 -18 -9 -21 27 -4 47 13 16 13 17 -2 11 -13 -5 -16 -2 -11 10
3 9 11 13 18 9 7 -4 7 -2 -1 8 -9 11 -9 19 -2 26 8 8 7 13 -2 18 -8 5 -10 4
-5 -3 4 -7 2 -12 -3 -12 -14 0 -14 17 -1 25 6 4 8 11 5 16 -4 5 -1 9 6 9 7 0
5 6 -6 13 -14 11 -15 16 -5 22 10 6 9 9 -1 16 -11 7 -9 9 6 9 19 1 19 1 2 11
-14 8 -16 14 -6 25 6 8 8 14 4 14 -4 0 -2 7 5 15 7 9 10 18 6 22 -3 3 -6 1 -6
-5 0 -7 -5 -12 -10 -12 -7 0 -7 6 0 20 8 15 8 20 -2 20 -6 0 -4 6 7 13 14 11
15 16 5 22 -9 6 -11 4 -5 -5 5 -9 4 -11 -4 -6 -8 6 -9 12 -2 20 6 7 8 16 4 19
-3 4 0 7 8 7 10 1 9 3 -3 11 -17 9 -17 12 -2 35 15 22 15 24 0 18 -14 -5 -15
-2 -6 20 5 14 7 26 4 26 -2 0 1 10 7 22 11 21 11 22 -4 9 -16 -13 -25 -2 -10
13 9 9 13 87 4 81 -11 -6 -6 27 7 52 11 20 10 22 -4 16 -11 -4 -15 -2 -11 4 3
5 9 24 12 42 4 24 2 31 -6 25 -7 -4 -9 -3 -6 3 3 5 9 24 12 42 4 25 2 31 -7
25 -10 -6 -11 -5 -1 8 7 8 10 18 6 21 -3 4 0 7 8 7 10 1 9 4 -4 11 -14 8 -16
14 -6 25 9 11 9 14 -2 14 -8 0 -6 6 7 16 10 8 14 13 7 10 -18 -9 -21 27 -4 47
13 16 13 17 -2 11 -13 -5 -16 -2 -11 10 3 9 11 13 18 9 7 -4 7 -2 -1 8 -9 11
-9 19 -2 26 8 8 7 13 -2 18 -8 5 -10 4 -5 -3 4 -7 2 -12 -3 -12 -14 0 -14 17
-1 25 6 4 8 11 5 16 -4 5 -1 9 6 9 7 0 5 6 -6 13 -14 11 -15 16 -5 22 10 6 9
9 -1 16 -11 7 -9 9 6 9 19 1 19 1 2 11 -14 8 -16 14 -6 25 6 8 8 14 4 14 -4 0
-2 7 5 15 7 9 10 18 6 22 -3 3 -6 1 -6 -5 0 -7 -5 -12 -10 -12 -7 0 -7 6 0 20
8 15 8 20 -2 20 -6 0 -4 6 7 13 14 11 15 16 5 22 -9 6 -11 4 -5 -5 5 -9 4 -11
-4 -6 -8 6 -9 12 -2 20 6 7 8 16 4 19 -3 4 0 7 8 7 10 1 9 3 -3 11 -17 9 -17
12 -2 35 15 22 15 24 0 18 -14 -5 -15 -2 -6 20 5 14 7 26 4 26 -2 0 1 10 7 23
11 20 11 21 -4 8 -16 -13 -25 -2 -10 13 9 9 13 87 4 81 -11 -6 -6 27 7 52 11
19 10 22 -3 17 -13 -5 -14 -2 -5 20 5 14 7 26 4 26 -4 0 -1 7 6 15 7 9 10 18
6 22 -3 3 -6 1 -6 -5 0 -7 -5 -12 -10 -12 -7 0 -7 6 0 20 8 15 8 20 -2 20 -6
0 -4 6 7 13 14 11 15 16 5 22 -9 6 -11 4 -5 -5 5 -9 4 -11 -4 -6 -8 6 -9 12
-2 20 6 7 8 16 4 19 -3 4 0 7 7 7 9 0 8 5 -5 13 -14 11 -15 16 -5 22 10 6 9 9
-1 16 -11 7 -9 9 6 9 19 1 19 1 2 11 -14 8 -16 14 -6 25 6 8 8 14 4 14 -4 0
-2 7 5 15 7 9 10 18 6 22 -3 3 -6 1 -6 -5 0 -7 -5 -12 -10 -12 -7 0 -7 6 0 20
8 15 8 20 -2 20 -6 0 -4 6 7 13 14 11 15 16 5 22 -9 6 -11 4 -5 -5 5 -9 4 -11
-4 -6 -8 6 -9 12 -2 20 6 7 8 16 4 19 -3 4 0 7 8 7 10 1 9 4 -4 11 -14 8 -16
14 -6 25 9 11 8 14 -2 15 -8 0 -5 4 6 9 11 5 15 9 9 9 -7 1 -15 8 -18 17 -3 8
-2 12 3 9 5 -3 13 0 17 7 4 7 4 10 -1 6 -4 -4 -16 -3 -27 3 -16 9 -17 13 -6
26 11 14 10 15 -12 8 -23 -7 -24 -7 -10 10 9 11 10 16 3 11 -8 -4 -13 -2 -13
5 0 10 -3 10 -12 1 -15 -15 -28 -15 -28 -1 0 5 6 7 13 3 7 -4 9 -3 4 2 -12 12
-50 12 -59 0 -4 -6 -10 2 -13 16 -4 15 -15 34 -25 43 -15 14 -18 14 -23 1 -4
-10 -1 -13 7 -10 8 3 16 2 19 -3 3 -4 -6 -9 -19 -9 -18 -2 -24 3 -24 19 0 16
-3 18 -12 9 -18 -18 -32 -14 -17 5 10 11 10 14 2 9 -8 -4 -13 -2 -13 4 0 7 -6
10 -13 7 -8 -3 -20 -1 -28 5 -11 8 -10 9 4 4 9 -3 17 -1 17 4 0 6 -5 10 -11
10 -5 0 -7 5 -3 11 3 6 -6 3 -22 -7 -26 -17 -28 -17 -15 -1 9 12 10 17 2 17
-7 0 -9 6 -6 13 4 6 0 4 -8 -6 -13 -16 -15 -16 -21 -2 -4 11 -2 14 6 9 7 -4 8
-3 4 4 -4 7 -2 12 5 12 7 0 9 3 6 7 -4 3 -15 -2 -26 -11 -13 -12 -21 -14 -26
-6 -3 5 -11 8 -16 5 -5 -4 -5 4 1 19 7 20 6 24 -5 19 -8 -3 -12 -9 -9 -14 3
-5 0 -9 -5 -9 -6 0 -11 5 -11 10 0 6 -5 10 -11 10 -5 0 -7 -5 -3 -12 4 -7 3
-8 -5 -4 -6 4 -8 12 -5 18 5 7 1 9 -9 5 -9 -3 -19 -2 -22 3 -4 6 -11 10 -16
10 -6 0 -7 -6 -3 -12 5 -9 2 -9 -9 1 -9 7 -17 22 -17 32 0 11 -7 19 -16 19 -9
0 -12 5 -8 12 4 7 3 8 -5 4 -9 -6 -9 -11 0 -22 7 -9 8 -14 1 -14 -6 0 -14 9
-17 20 -3 11 -11 20 -16 20 -6 0 -7 -5 -3 -11 3 -6 -5 -4 -18 5 -14 9 -28 13
-31 9 -4 -3 -7 -1 -7 6 0 7 -4 10 -8 7 -5 -3 -9 1 -9 9 0 8 4 15 9 15 4 0 8
-4 8 -8 0 -5 11 -14 25 -20 18 -9 26 -8 31 1 4 7 4 9 -1 5 -10 -9 -47 10 -40
22 3 4 -9 7 -25 6 -17 -1 -30 2 -30 7 0 4 -6 5 -12 1 -10 -6 -10 -4 0 8 11 13
11 18 0 24 -21 14 -35 13 -35 -2 0 -11 3 -11 16 -1 14 11 14 10 2 -5 -18 -24
-31 -23 -31 3 0 15 -5 19 -18 15 -24 -8 -80 34 -74 54 5 13 3 13 -11 1 -9 -7
-14 -18 -10 -25 4 -6 -1 -5 -10 2 -9 8 -16 17 -15 20 2 21 -4 31 -17 26 -12
-5 -13 -2 -8 12 7 18 6 18 -11 1 -14 -14 -21 -15 -32 -6 -8 6 -14 18 -14 25 0
16 -26 19 -35 4 -3 -5 -12 -10 -18 -9 -9 0 -9 2 1 6 6 2 12 11 12 19 0 9 5 12
12 8 7 -4 8 -3 4 5 -4 6 -11 9 -16 6 -4 -3 -10 -2 -13 2 -2 5 -2 3 -1 -4 2 -7
-2 -15 -8 -19 -7 -5 -8 -2 -3 6 6 10 4 12 -11 6 -10 -4 -15 -4 -11 0 4 4 -1
13 -11 21 -15 12 -14 13 8 2 22 -11 24 -11 12 4 -7 8 -27 15 -43 15 -20 -1
-38 7 -52 23 l-22 23 23 -19 c19 -15 22 -16 17 -3 -9 24 -32 29 -50 12 -13
-14 -15 -14 -15 1 0 10 -5 13 -12 9 -9 -5 -8 -2 1 9 8 10 11 20 7 24 -3 3 -6
0 -6 -8 0 -11 -2 -11 -10 1 -5 8 -10 10 -10 4 0 -14 -48 -15 -57 -1 -3 6 -1 7
5 3 7 -4 20 -2 29 4 17 11 17 11 1 6 -10 -3 -18 -1 -18 3 0 5 -12 8 -26 6 -19
-2 -24 1 -19 13 5 13 3 13 -12 1 -14 -12 -16 -12 -8 0 6 11 2 13 -18 9 -15 -3
-24 -2 -22 2 2 4 -3 16 -11 26 -9 10 -13 13 -9 7 3 -7 2 -13 -4 -13 -5 0 -12
9 -16 20 -6 19 -24 23 -36 7 -3 -5 -9 -1 -12 8 -4 9 -3 14 2 11 5 -3 11 1 14
9 4 10 1 12 -10 8 -12 -5 -14 -2 -9 8 4 8 1 6 -7 -3 -17 -22 -28 -23 -21 -4 7
17 -43 46 -65 38 -10 -3 -12 0 -8 11 7 19 -8 33 -18 17 -4 -6 -11 -8 -16 -5
-5 3 -6 -2 -4 -12 3 -10 0 -8 -6 5 -7 12 -16 22 -21 22 -5 0 -6 6 -2 13 5 7 0
6 -11 -3 -11 -9 -16 -10 -11 -2 4 7 1 12 -8 12 -9 0 -16 -5 -16 -11 0 -5 -4
-7 -10 -4 -5 3 -10 11 -10 16 0 6 5 7 10 4 6 -3 10 -1 10 6 0 6 -8 9 -20 6
-11 -3 -20 -1 -20 4 0 5 6 9 13 10 6 0 3 4 -8 9 -14 5 -26 2 -40 -9 -17 -14
-18 -14 -7 0 6 9 9 19 5 22 -3 4 2 7 13 7 16 0 16 2 4 10 -11 7 -18 3 -27 -13
-12 -22 -12 -22 -13 -1 0 11 -12 31 -27 45 -14 13 -24 20 -21 14 3 -5 -1 -16
-8 -23 -12 -11 -16 -9 -25 17 -13 36 -15 37 -37 13 -10 -10 -13 -12 -8 -4 11
15 -11 35 -31 27 -7 -2 -15 0 -19 6 -3 5 -15 7 -27 3 -21 -6 -21 -6 -3 8 15
12 16 17 6 23 -9 5 -11 4 -6 -3 4 -7 2 -12 -3 -12 -6 0 -11 5 -11 11 0 6 -7 8
-16 5 -8 -3 -13 -2 -11 2 3 4 -2 14 -11 22 -14 13 -15 12 -9 -3 3 -9 2 -19 -3
-22 -9 -5 -12 8 -9 31 2 14 -26 22 -43 13 -17 -9 -23 -1 -19 24 1 5 -4 5 -11
1 -19 -12 -39 -14 -32 -3 3 5 10 7 15 4 5 -4 9 -2 9 4 0 13 -15 22 -24 14 -3
-4 -15 -7 -25 -8 -16 -1 -18 2 -10 23 5 14 7 27 4 30 -3 3 -5 0 -5 -7 0 -7 -5
-9 -12 -5 -7 4 -8 3 -4 -4 5 -8 2 -10 -9 -6 -12 5 -13 9 -4 20 10 12 8 13 -6
7 -15 -5 -17 -3 -12 11 4 10 3 15 -3 11 -6 -3 -10 -14 -10 -23 0 -11 -7 -5
-20 16 -11 17 -23 32 -26 32 -4 0 0 -7 7 -17 13 -15 12 -15 -11 -3 -14 7 -28
18 -32 24 -5 8 -8 7 -8 -1 0 -7 -5 -13 -11 -13 -5 0 -7 5 -4 10 3 6 1 10 -6
10 -8 0 -9 3 0 14 9 11 6 12 -14 8 -14 -2 -22 -9 -19 -14 3 -5 -3 -4 -14 3
-12 7 -20 15 -20 18 2 25 -5 33 -12 14 -5 -13 -15 -23 -22 -22 -10 0 -10 2 0
6 16 6 15 21 -3 39 -8 9 -15 12 -15 7 0 -5 6 -15 13 -22 10 -10 9 -11 -5 -6
-10 4 -18 13 -18 21 0 17 -16 18 -24 2 -3 -7 -4 -4 -1 8 3 13 -1 27 -12 35 -9
8 -14 10 -11 4 3 -5 -1 -16 -9 -24 -13 -12 -14 -11 -9 7 5 14 1 25 -14 35 -11
7 -17 17 -13 20 3 4 1 7 -5 7 -19 0 -14 -16 11 -34 22 -16 22 -16 -5 -4 -16 6
-28 17 -28 25 0 7 -5 13 -11 13 -5 0 -8 -4 -5 -8 3 -5 -1 -9 -9 -9 -8 0 -12 3
-10 6 2 4 -3 17 -12 31 -8 14 -12 17 -9 8 3 -10 0 -20 -6 -24 -7 -5 -8 -2 -3
6 6 10 4 12 -8 7 -18 -7 -51 19 -42 33 3 5 -11 7 -32 5 -21 -2 -32 -1 -25 1 6
3 12 10 12 15 0 5 -6 8 -12 7 -7 -2 -13 4 -12 13 1 11 -7 14 -32 13 -18 -2
-36 2 -40 8 -5 7 -2 8 7 3 8 -5 5 1 -5 13 -16 18 -22 20 -34 10 -13 -11 -14
-9 -9 12 4 14 4 19 1 13 -7 -16 -25 -17 -21 -2 1 6 -5 14 -13 16 -13 4 -13 3
0 -6 11 -8 8 -9 -15 -7 -19 3 -29 9 -27 17 1 8 -5 5 -13 -5 -9 -12 -15 -15
-15 -7 0 11 -3 11 -15 1 -12 -10 -16 -9 -21 4 -3 9 -10 13 -15 10 -5 -3 -6
-11 -3 -17 5 -9 4 -9 -6 0 -9 8 -19 9 -32 2 -14 -7 -20 -6 -24 6 -3 8 -10 12
-15 9 -5 -3 -6 -11 -2 -17 5 -9 3 -9 -8 -2 -17 12 -39 13 -58 1 -9 -6 -12 -5
-8 1 4 6 0 14 -9 17 -8 3 -12 2 -9 -3z m360 -51 c3 -5 1 -10 -4 -10 -6 0 -11
5 -11 10 0 6 2 10 4 10 3 0 8 -4 11 -10z m-765 -26 c0 -8 -19 -13 -24 -6 -3 5
1 9 9 9 8 0 15 -2 15 -3z m-44 -16 c4 -7 3 -10 -1 -5 -5 4 -18 -1 -29 -10 -21
-18 -21 -18 -2 5 22 26 23 26 32 10z m854 2 c0 -5 -5 -10 -11 -10 -5 0 -7 5
-4 10 3 6 8 10 11 10 2 0 4 -4 4 -10z m-900 -4 c0 -2 -8 -10 -17 -17 -16 -13
-17 -12 -4 4 13 16 21 21 21 13z m911 -19 c-10 -9 -11 -8 -5 6 3 10 9 15 12
12 3 -3 0 -11 -7 -18z m-1136 -7 c3 -5 -1 -10 -10 -10 -9 0 -13 5 -10 10 3 6
8 10 10 10 2 0 7 -4 10 -10z m-995 -136 c0 -8 -19 -13 -24 -6 -3 5 1 9 9 9 8
0 15 -2 15 -3z m-860 -120 c0 -8 -19 -13 -24 -6 -3 5 1 9 9 9 8 0 15 -2 15 -3z
m3737 -129 c0 -8 -4 -12 -9 -9 -5 3 -6 10 -3 15 9 13 12 11 12 -6z m-5203 -91
c3 -8 2 -12 -4 -9 -6 3 -10 10 -10 16 0 14 7 11 14 -7z m5487 -41 c8 -9 9 -14
2 -10 -6 4 -13 1 -16 -5 -3 -7 -4 -3 -4 10 1 26 1 26 18 5z m-6009 -20 c-6 -3
-9 -10 -5 -16 5 -9 3 -9 -8 -1 -8 6 -22 10 -32 9 -9 -2 -15 1 -12 5 3 5 14 7
25 5 11 -2 22 1 26 6 3 6 9 7 13 3 3 -4 0 -9 -7 -11z m6276 -148 c-3 -3 -9 2
-12 12 -6 14 -5 15 5 6 7 -7 10 -15 7 -18z m-6370 -4080 c-3 -3 -9 2 -12 12
-6 14 -5 15 5 6 7 -7 10 -15 7 -18z m212 -106 c-7 -11 -14 -19 -16 -16 -7 7 7
37 17 37 6 0 5 -9 -1 -21z m437 -251 c-3 -8 -6 -5 -6 6 -1 11 2 17 5 13 3 -3
4 -12 1 -19z m310 -149 c2 -16 -1 -19 -9 -11 -5 5 -7 15 -4 21 10 15 12 14 13
-10z m223 -127 c0 -12 -3 -12 -17 -1 -10 7 -20 14 -22 16 -2 1 6 1 18 0 11 -1
21 -8 21 -15z m128 -66 c-7 -8 -15 -12 -17 -11 -5 6 10 25 20 25 5 0 4 -6 -3
-14z m93 -69 c-10 -9 -11 -8 -5 6 3 10 9 15 12 12 3 -3 0 -11 -7 -18z m144
-56 c-3 -2 -16 -6 -28 -8 -15 -2 -18 0 -9 5 14 9 45 12 37 3z m53 -37 c-11
-11 -18 -12 -22 -5 -4 6 0 11 8 11 9 0 16 5 16 12 0 6 3 8 7 4 4 -3 0 -14 -9
-22z m5182 -188 c0 -3 -4 -8 -10 -11 -5 -3 -10 -1 -10 4 0 6 5 11 10 11 6 0
10 -2 10 -4z m-286 -46 c-6 -6 -15 -5 -24 1 -13 9 -12 10 3 5 9 -3 17 0 17 6
0 6 3 8 7 5 4 -4 2 -12 -3 -17z m-194 -34 c0 -3 -4 -8 -10 -11 -5 -3 -10 -1
-10 4 0 6 5 11 10 11 6 0 10 -2 10 -4z m-252 -21 c13 2 20 0 17 -6 -4 -5 -10
-7 -15 -4 -5 3 -12 0 -16 -6 -7 -12 -24 6 -24 26 0 6 4 4 8 -2 4 -7 18 -11 30
-8z m-902 -137 c4 -7 4 -10 -1 -6 -4 4 -14 3 -22 -4 -11 -8 -12 -7 -7 6 7 19
20 21 30 4z m-2706 -38 c0 -5 -2 -10 -4 -10 -3 0 -8 5 -11 10 -3 6 -1 10 4 10
6 0 11 -4 11 -10z m2280 1 c0 -5 -7 -12 -16 -15 -14 -5 -15 -4 -4 9 14 17 20
19 20 6z m-2238 -33 c-6 -6 -12 -6 -17 3 -5 8 -4 10 3 5 7 -4 12 0 13 11 0 12
2 13 6 5 3 -8 1 -18 -5 -24z"/>
<path d="M5271 7093 c-1 -17 16 -25 25 -12 4 7 3 9 -4 5 -5 -3 -13 0 -15 6 -4
9 -6 10 -6 1z"/>
<path d="M3263 7015 c0 -8 4 -12 9 -9 5 3 6 10 3 15 -9 13 -12 11 -12 -6z"/>
<path d="M2758 6943 c7 -3 16 -2 19 1 4 3 -2 6 -13 5 -11 0 -14 -3 -6 -6z"/>
<path d="M1870 6826 c0 -2 7 -7 16 -10 8 -3 12 -2 9 4 -6 10 -25 14 -25 6z"/>
<path d="M5807 6805 c-4 -8 -3 -16 1 -19 4 -3 9 4 9 15 2 23 -3 25 -10 4z"/>
<path d="M6030 6681 c0 -6 4 -12 8 -15 5 -3 9 1 9 9 0 8 -4 15 -9 15 -4 0 -8
-4 -8 -9z"/>
<path d="M6630 6350 c0 -6 7 -10 15 -10 8 0 15 2 15 4 0 2 -7 6 -15 10 -8 3
-15 1 -15 -4z"/>
<path d="M6876 6218 c3 -5 10 -6 15 -3 13 9 11 12 -6 12 -8 0 -12 -4 -9 -9z"/>
<path d="M7150 6068 c0 -3 6 -11 14 -17 10 -9 17 -7 27 6 12 16 12 17 -2 6
-12 -10 -18 -10 -27 -1 -7 7 -12 9 -12 6z"/>
<path d="M7195 6040 c-3 -5 -1 -10 4 -10 6 0 11 5 11 10 0 6 -2 10 -4 10 -3 0
-8 -4 -11 -10z"/>
<path d="M7460 5879 c0 -5 5 -7 10 -4 6 4 17 1 25 -5 12 -10 15 -10 15 2 0 7
-11 15 -25 16 -14 1 -25 -3 -25 -9z"/>
<path d="M7845 5679 c-3 -4 2 -6 10 -5 21 3 28 13 10 13 -9 0 -18 -4 -20 -8z"/>
<path d="M233 2265 c0 -8 4 -12 9 -9 5 3 6 10 3 15 -9 13 -12 11 -12 -6z"/>
<path d="M1331 1664 c0 -11 3 -14 6 -6 3 7 2 16 -1 19 -3 4 -6 -2 -5 -13z"/>
<path d="M1535 1549 c-10 -15 3 -25 16 -12 7 7 7 13 1 17 -6 3 -14 1 -17 -5z"/>
<path d="M7095 1309 c-4 -6 -4 -13 -1 -16 3 -4 6 -1 6 6 0 7 5 9 12 5 7 -4 8
-3 4 4 -9 15 -13 15 -21 1z"/>
<path d="M2070 1264 c0 -11 29 -34 34 -26 2 4 -4 13 -15 20 -10 7 -19 10 -19
6z"/>
<path d="M2155 1199 c-3 -4 2 -6 10 -5 21 3 28 13 10 13 -9 0 -18 -4 -20 -8z"/>
<path d="M2700 916 c0 -2 8 -10 18 -17 15 -13 16 -12 3 4 -13 16 -21 21 -21
13z"/>
<path d="M2791 857 c2 -1 13 -9 24 -17 19 -14 19 -14 6 3 -7 9 -18 17 -24 17
-6 0 -8 -1 -6 -3z"/>
<path d="M3155 760 c-3 -5 -1 -10 4 -10 6 0 11 5 11 10 0 6 -2 10 -4 10 -3 0
-8 -4 -11 -10z"/>
</g>
</svg>
